<svg t="1743574877120" class="icon" viewBox="0 0 1024 1024" version="1.1" xmlns="http://www.w3.org/2000/svg" p-id="12308" width="20" height="20"><path d="M332.816 296.48c-19.392 0-37.984 7.68-51.68 21.344l-115.76 115.52A72.736 72.736 0 0 0 144 484.8v185.92a37.968 37.968 0 0 0 38.048 37.888h59.888a119.584 119.584 0 0 1 115.216-87.36c54.88 0 101.2 36.96 115.216 87.36h119.792a119.584 119.584 0 0 1 115.216-87.36c54.88 0 101.2 36.96 115.2 87.36h7.376a37.968 37.968 0 0 0 38.048-37.888v-109.968H530.08a66.992 66.992 0 0 1-67.024-66.96V296.48h-130.24z m-96.896-23.952a137.184 137.184 0 0 1 96.896-40.048h162.24a32 32 0 0 1 32 32v229.328c0 1.568 1.28 2.96 3.024 2.96h369.92a32 32 0 0 1 32 32v141.968c0 56.336-45.76 101.888-102.048 101.888h-35.024a32 32 0 0 1-32-32c0-30.512-24.8-55.36-55.552-55.36a55.456 55.456 0 0 0-55.552 55.36 32 32 0 0 1-32 32H444.704a32 32 0 0 1-32-32c0-30.512-24.8-55.36-55.552-55.36a55.456 55.456 0 0 0-55.552 55.36 32 32 0 0 1-32 32h-87.552C125.744 772.64 80 727.072 80 670.736v-185.92c0-36.32 14.464-71.12 40.16-96.784l115.76-115.504z" fill="#000000" p-id="12309"></path><path d="M355.552 684a55.456 55.456 0 0 0-55.552 55.36c0 30.528 24.8 55.376 55.552 55.376a55.456 55.456 0 0 0 55.552-55.36c0-30.528-24.8-55.376-55.552-55.376z m-119.552 55.36c0-65.984 53.6-119.36 119.552-119.36 65.968 0 119.552 53.376 119.552 119.36 0 66-53.584 119.376-119.552 119.376s-119.552-53.376-119.552-119.36zM707.552 684a55.456 55.456 0 0 0-55.552 55.36c0 30.528 24.8 55.376 55.552 55.376a55.456 55.456 0 0 0 55.552-55.36c0-30.528-24.8-55.376-55.552-55.376z m-119.552 55.36c0-65.984 53.6-119.36 119.552-119.36 65.968 0 119.552 53.376 119.552 119.36 0 66-53.584 119.376-119.552 119.376s-119.552-53.376-119.552-119.36zM341.792 357.392a32 32 0 0 1-0.048 45.264l-71.136 70.976a32 32 0 1 1-45.216-45.296l71.152-70.992a32 32 0 0 1 45.248 0.048zM464 188a64 64 0 0 1 64-64h340a64 64 0 0 1 64 64v336a32 32 0 0 1-32 32H528a64 64 0 0 1-64-64v-304z m404 0H528v304h340v-304z" fill="#000000" p-id="12310"></path></svg>