<svg xmlns="http://www.w3.org/2000/svg" width="20" height="20" viewBox="0 0 20 20" fill="none">
  <path fill-rule="evenodd" clip-rule="evenodd" d="M7.44434 5.55556C7.44434 4.14416 8.5885 3 9.99989 3C11.4113 3 12.5554 4.14416 12.5554 5.55556C12.5554 6.96695 11.4113 8.11111 9.99989 8.11111C8.5885 8.11111 7.44434 6.96695 7.44434 5.55556ZM9.99989 1C7.48393 1 5.44434 3.03959 5.44434 5.55556C5.44434 8.07152 7.48393 10.1111 9.99989 10.1111C12.5159 10.1111 14.5554 8.07152 14.5554 5.55556C14.5554 3.03959 12.5159 1 9.99989 1ZM5.375 10.7777C2.95876 10.7777 1 12.7365 1 15.1527V17.9999C1 18.5522 1.44772 18.9999 2 18.9999C2.55228 18.9999 3 18.5522 3 17.9999V15.1527C3 13.841 4.06332 12.7777 5.375 12.7777H14.625C15.9367 12.7777 17 13.841 17 15.1527V17.9999C17 18.5522 17.4477 18.9999 18 18.9999C18.5523 18.9999 19 18.5522 19 17.9999V15.1527C19 12.7365 17.0412 10.7777 14.625 10.7777H5.375Z" fill="black"></path>
</svg>